#include "melodies.h"
#include "notes.h"
Melody asaBlanca = {
    "Asa blanca",
    120,
    184,
    {// Asa branca - Luiz Gonzaga
     // Score available at https://musescore.com/user/190926/scores/181370

     NOTE_G4, 8, NOTE_A4, 8, NOTE_B4, 4, NOTE_D5, 4, NOTE_D5, 4, NOTE_B4, 4,
     NOTE_C5, 4, NOTE_C5, 2, NOTE_G4, 8, NOTE_A4, 8,
     NOTE_B4, 4, NOTE_D5, 4, NOTE_D5, 4, NOTE_C5, 4,

     NOTE_B4, 2, REST, 8, NOTE_G4, 8, NOTE_G4, 8, NOTE_A4, 8,
     NOTE_B4, 4, NOTE_D5, 4, REST, 8, NOTE_D5, 8, NOTE_C5, 8, NOTE_B4, 8,
     NOTE_G4, 4, NOTE_C5, 4, REST, 8, NOTE_C5, 8, NOTE_B4, 8, NOTE_A4, 8,

     NOTE_A4, 4, NOTE_B4, 4, REST, 8, NOTE_B4, 8, NOTE_A4, 8, NOTE_G4, 8,
     NOTE_G4, 2, REST, 8, NOTE_G4, 8, NOTE_G4, 8, NOTE_A4, 8,
     NOTE_B4, 4, NOTE_D5, 4, REST, 8, NOTE_D5, 8, NOTE_C5, 8, NOTE_B4, 8,

     NOTE_G4, 4, NOTE_C5, 4, REST, 8, NOTE_C5, 8, NOTE_B4, 8, NOTE_A4, 8,
     NOTE_A4, 4, NOTE_B4, 4, REST, 8, NOTE_B4, 8, NOTE_A4, 8, NOTE_G4, 8,
     NOTE_G4, 4, NOTE_F5, 8, NOTE_D5, 8, NOTE_E5, 8, NOTE_C5, 8, NOTE_D5, 8, NOTE_B4, 8,

     NOTE_C5, 8, NOTE_A4, 8, NOTE_B4, 8, NOTE_G4, 8, NOTE_A4, 8, NOTE_G4, 8, NOTE_E4, 8, NOTE_G4, 8,
     NOTE_G4, 4, NOTE_F5, 8, NOTE_D5, 8, NOTE_E5, 8, NOTE_C5, 8, NOTE_D5, 8, NOTE_B4, 8,
     NOTE_C5, 8, NOTE_A4, 8, NOTE_B4, 8, NOTE_G4, 8, NOTE_A4, 8, NOTE_G4, 8, NOTE_E4, 8, NOTE_G4, 8,
     NOTE_G4, -2, REST, 4

    }};
Melody bloodyTears{
    "Bloody Tears",
    144,
    1354,
    {

        // Bloody Tears, from Castlevania II
        // Arranged by Bobby Lee. THe flute part was used
        // https://musescore.com/user/263171/scores/883296

        // B-flat major Bb Eb
        REST, 4, NOTE_G5, 4,
        NOTE_A5, 4, NOTE_AS5, 4,
        NOTE_A5, 4, NOTE_F5, 4,
        NOTE_A5, 4, NOTE_G5, 4,
        REST, 4, NOTE_G5, 4,
        NOTE_A5, 4, NOTE_AS5, 4,
        NOTE_C6, 4, NOTE_AS5, 4,

        NOTE_A5, 4, NOTE_G5, 4, // 8
        REST, 4, NOTE_G5, 4,
        NOTE_A5, 4, NOTE_AS5, 4,
        NOTE_A5, 4, NOTE_F5, 4,
        NOTE_A5, 4, NOTE_G5, 4,
        NOTE_D6, 4, REST, 8, NOTE_C6, 8,
        REST, 4, NOTE_AS5, 4,

        NOTE_A5, 4, NOTE_AS5, 8, NOTE_C6, 8, // 15
        NOTE_F6, 8, REST, 8, REST, 4,
        NOTE_G5, 16, NOTE_D5, 16, NOTE_D6, 16, NOTE_D5, 16, NOTE_C6, 16, NOTE_D5, 16, NOTE_AS5, 16, NOTE_D5, 16,
        NOTE_A5, 16, NOTE_D5, 16, NOTE_AS5, 16, NOTE_D5, 16, NOTE_A5, 16, NOTE_D5, 16, NOTE_G5, 16, NOTE_D5, 16,
        NOTE_A5, 16, NOTE_D5, 16, NOTE_AS5, 16, NOTE_D5, 16, NOTE_C6, 16, NOTE_D5, 16, NOTE_AS5, 16, NOTE_D5, 16,

        NOTE_A5, 16, NOTE_D5, 16, NOTE_F5, 16, NOTE_D5, 16, NOTE_A5, 16, NOTE_D5, 16, NOTE_G5, 16, NOTE_D5, 16, // 20
        NOTE_G5, 16, NOTE_D5, 16, NOTE_D6, 16, NOTE_D5, 16, NOTE_C6, 16, NOTE_D5, 16, NOTE_AS5, 16, NOTE_D5, 16,
        NOTE_A5, 16, NOTE_D5, 16, NOTE_AS5, 16, NOTE_D5, 16, NOTE_A5, 16, NOTE_D5, 16, NOTE_AS5, 16, NOTE_D5, 16,
        NOTE_A5, 16, NOTE_D5, 16, NOTE_AS5, 16, NOTE_D5, 16, NOTE_C6, 16, NOTE_D5, 16, NOTE_AS5, 16, NOTE_D5, 16,
        NOTE_A5, 16, NOTE_D5, 16, NOTE_F5, 16, NOTE_D5, 16, NOTE_A5, 16, NOTE_D5, 16, NOTE_G5, 16, NOTE_D5, 16,

        NOTE_G5, 16, NOTE_D5, 16, NOTE_D6, 16, NOTE_D5, 16, NOTE_C6, 16, NOTE_D5, 16, NOTE_AS5, 16, NOTE_D5, 16, // 25
        NOTE_A5, 16, NOTE_D5, 16, NOTE_AS5, 16, NOTE_D5, 16, NOTE_A5, 16, NOTE_D5, 16, NOTE_G5, 16, NOTE_D5, 16,
        NOTE_A5, 16, NOTE_D5, 16, NOTE_AS5, 16, NOTE_D5, 16, NOTE_C6, 16, NOTE_D5, 16, NOTE_AS5, 16, NOTE_D5, 16,
        NOTE_A5, 16, NOTE_D5, 16, NOTE_F5, 16, NOTE_D5, 16, NOTE_A5, 16, NOTE_D5, 16, NOTE_G5, 16, NOTE_D5, 16,
        NOTE_AS5, 16, NOTE_D5, 16, NOTE_D6, 16, NOTE_D5, 16, NOTE_C6, 16, NOTE_D5, 16, NOTE_AS5, 16, NOTE_D5, 16,

        NOTE_A5, 16, NOTE_D5, 16, NOTE_AS5, 16, NOTE_D5, 16, NOTE_A5, 16, NOTE_D5, 16, NOTE_G5, 16, NOTE_D5, 16,
        NOTE_A5, 16, NOTE_D5, 16, NOTE_AS5, 16, NOTE_D5, 16, NOTE_C6, 16, NOTE_D5, 16, NOTE_AS5, 16, NOTE_D5, 16,
        NOTE_A5, 16, NOTE_D5, 16, NOTE_F5, 16, NOTE_D5, 16, NOTE_A5, 16, NOTE_D5, 16, NOTE_G5, 16, NOTE_D5, 16,
        NOTE_C6, 16, NOTE_C6, 16, NOTE_F6, 16, NOTE_D6, 8, REST, 16, REST, 8,
        REST, 4, NOTE_C6, 16, NOTE_AS5, 16,

        NOTE_C6, -8, NOTE_F6, -8, NOTE_D6, -4, // 35
        NOTE_C6, 8, NOTE_AS5, 8,
        NOTE_C6, 8, NOTE_F6, 16, NOTE_D6, 8, REST, 16, REST, 8,
        REST, 4, NOTE_C6, 8, NOTE_D6, 8,
        NOTE_DS6, -8, NOTE_F6, -8,

        NOTE_D6, -8, REST, 16, NOTE_DS6, 8, REST, 8, // 40
        NOTE_C6, 8, NOTE_F6, 16, NOTE_D6, 8, REST, 16, REST, 8,
        REST, 4, NOTE_C6, 8, NOTE_AS5, 8,
        NOTE_C6, -8, NOTE_F6, -8, NOTE_D6, -4,
        NOTE_C6, 8, NOTE_AS5, 8,

        NOTE_C6, 8, NOTE_F6, 16, NOTE_D6, 8, REST, 16, REST, 8, // 45
        REST, 4, NOTE_C6, 8, NOTE_D6, 8,
        NOTE_DS6, -8, NOTE_F6, -8,
        NOTE_D5, 8, NOTE_FS5, 8, NOTE_F5, 8, NOTE_A5, 8,
        NOTE_A5, -8, NOTE_G5, -4,

        NOTE_A5, -8, NOTE_G5, -4, // 50
        NOTE_A5, -8, NOTE_G5, -4,
        NOTE_AS5, 8, NOTE_A5, 8, NOTE_G5, 8, NOTE_F5, 8,
        NOTE_A5, -8, NOTE_G5, -8, NOTE_D5, 8,
        NOTE_A5, -8, NOTE_G5, -8, NOTE_D5, 8,
        NOTE_A5, -8, NOTE_G5, -8, NOTE_D5, 8,

        NOTE_AS5, 4, NOTE_C6, 4, NOTE_A5, 4, NOTE_AS5, 4,
        NOTE_G5, 16, NOTE_D5, 16, NOTE_D6, 16, NOTE_D5, 16, NOTE_C6, 16, NOTE_D5, 16, NOTE_AS5, 16, NOTE_D5, 16, // 56 //r
        NOTE_A5, 16, NOTE_D5, 16, NOTE_AS5, 16, NOTE_D5, 16, NOTE_A5, 16, NOTE_D5, 16, NOTE_G5, 16, NOTE_D5, 16,
        NOTE_A5, 16, NOTE_D5, 16, NOTE_AS5, 16, NOTE_D5, 16, NOTE_C6, 16, NOTE_D5, 16, NOTE_AS5, 16, NOTE_D5, 16,
        NOTE_A5, 16, NOTE_D5, 16, NOTE_F5, 16, NOTE_D5, 16, NOTE_A5, 16, NOTE_D5, 16, NOTE_G5, 16, NOTE_D5, 16,

        NOTE_G5, 16, NOTE_D5, 16, NOTE_D6, 16, NOTE_D5, 16, NOTE_C6, 16, NOTE_D5, 16, NOTE_AS5, 16, NOTE_D5, 16, // 61
        NOTE_A5, 16, NOTE_D5, 16, NOTE_AS5, 16, NOTE_D5, 16, NOTE_A5, 16, NOTE_D5, 16, NOTE_AS5, 16, NOTE_D5, 16,
        NOTE_A5, 16, NOTE_D5, 16, NOTE_AS5, 16, NOTE_D5, 16, NOTE_C6, 16, NOTE_D5, 16, NOTE_AS5, 16, NOTE_D5, 16,
        NOTE_A5, 16, NOTE_D5, 16, NOTE_F5, 16, NOTE_D5, 16, NOTE_A5, 16, NOTE_D5, 16, NOTE_G5, 16, NOTE_D5, 16,
        NOTE_G5, 16, NOTE_D5, 16, NOTE_D6, 16, NOTE_D5, 16, NOTE_C6, 16, NOTE_D5, 16, NOTE_AS5, 16, NOTE_D5, 16,

        NOTE_A5, 16, NOTE_D5, 16, NOTE_AS5, 16, NOTE_D5, 16, NOTE_A5, 16, NOTE_D5, 16, NOTE_G5, 16, NOTE_D5, 16, // 66
        NOTE_A5, 16, NOTE_D5, 16, NOTE_AS5, 16, NOTE_D5, 16, NOTE_C6, 16, NOTE_D5, 16, NOTE_AS5, 16, NOTE_D5, 16,
        NOTE_A5, 16, NOTE_D5, 16, NOTE_F5, 16, NOTE_D5, 16, NOTE_A5, 16, NOTE_D5, 16, NOTE_G5, 16, NOTE_D5, 16,
        NOTE_AS5, 16, NOTE_D5, 16, NOTE_D6, 16, NOTE_D5, 16, NOTE_C6, 16, NOTE_D5, 16, NOTE_AS5, 16, NOTE_D5, 16,
        NOTE_A5, 16, NOTE_D5, 16, NOTE_AS5, 16, NOTE_D5, 16, NOTE_A5, 16, NOTE_D5, 16, NOTE_G5, 16, NOTE_D5, 16,

        NOTE_A5, 16, NOTE_D5, 16, NOTE_AS5, 16, NOTE_D5, 16, NOTE_C6, 16, NOTE_D5, 16, NOTE_AS5, 16, NOTE_D5, 16, // 71 //
        NOTE_A5, 16, NOTE_D5, 16, NOTE_F5, 16, NOTE_D5, 16, NOTE_A5, 8, NOTE_G5, 32, NOTE_A5, 32, NOTE_AS5, 32, NOTE_C6, 32,
        NOTE_D6, 16, NOTE_G5, 16, NOTE_AS5, 16, NOTE_G5, 16, NOTE_C6, 16, NOTE_G5, 16, NOTE_D6, 16, NOTE_G5, 16,
        NOTE_C6, 16, NOTE_G5, 16, NOTE_A5, 16, NOTE_G5, 16, NOTE_F6, 16, NOTE_G5, 16, NOTE_D6, 16, NOTE_DS5, 16,
        NOTE_D6, 4, REST, 4,

        NOTE_C5, 8, REST, 8, NOTE_A4, -16, NOTE_AS4, -16, NOTE_C5, 16, // 76
        NOTE_D6, 16, NOTE_G4, 16, NOTE_AS4, 16, NOTE_G4, 16, NOTE_C5, 16, NOTE_G4, 16, NOTE_D6, 16, NOTE_G4, 16,
        NOTE_C6, 16, NOTE_F4, 16, NOTE_A4, 16, NOTE_F4, 16, NOTE_F5, 16, NOTE_F4, 16, NOTE_D6, 16, NOTE_DS4, 16,
        NOTE_D6, 16, REST, 8, NOTE_E4, 16, NOTE_F4, 16,

        // change of key B Major A# C# D# F# G#
        NOTE_GS4, 8, REST, 8, NOTE_AS4, 8, REST, 8,

        NOTE_DS5, 16, NOTE_GS4, 16, NOTE_B4, 16, NOTE_GS4, 16, NOTE_CS5, 16, NOTE_GS4, 16, NOTE_DS5, 16, NOTE_GS4, 16, // 81
        NOTE_CS5, 16, NOTE_FS4, 16, NOTE_AS4, 16, NOTE_FS4, 16, NOTE_FS5, 16, NOTE_FS4, 16, NOTE_DS5, 16, NOTE_E5, 16,
        NOTE_D5, 4, REST, 4,
        NOTE_CS5, 8, REST, 8, NOTE_AS4, -16, NOTE_B4, -16, NOTE_CS5, 16,
        NOTE_DS5, 16, NOTE_GS4, 16, NOTE_B4, 16, NOTE_GS4, 16, NOTE_CS5, 16, NOTE_GS4, 16, NOTE_DS5, 16, NOTE_GS4, 16,

        NOTE_CS5, 16, NOTE_FS4, 16, NOTE_AS4, 16, NOTE_FS4, 16, NOTE_FS5, 16, NOTE_FS4, 16, NOTE_DS5, 16, NOTE_E5, 16,
        NOTE_DS5, 4, REST, 8, NOTE_DS5, 16, NOTE_E5, 16,
        NOTE_FS5, 16, NOTE_CS5, 16, NOTE_E5, 16, NOTE_CS4, 16, NOTE_DS5, 16, NOTE_E5, 16, NOTE_G5, 16, NOTE_AS5, 16,
        NOTE_GS5, 16, NOTE_DS5, 16, NOTE_DS6, 16, NOTE_DS5, 16, NOTE_CS6, 16, NOTE_DS5, 16, NOTE_B5, 16, NOTE_DS5, 16,

        NOTE_AS5, 16, NOTE_DS5, 16, NOTE_B5, 16, NOTE_DS5, 16, NOTE_AS5, 16, NOTE_DS5, 16, NOTE_GS5, 16, NOTE_DS5, 16, // 90
        NOTE_AS5, 16, NOTE_DS5, 16, NOTE_B5, 16, NOTE_DS5, 16, NOTE_CS6, 16, NOTE_DS5, 16, NOTE_B5, 16, NOTE_DS5, 16,
        NOTE_AS5, 16, NOTE_DS5, 16, NOTE_FS5, 16, NOTE_DS5, 16, NOTE_AS5, 16, NOTE_DS5, 16, NOTE_GS5, 16, NOTE_DS5, 16,
        NOTE_GS5, 16, NOTE_DS5, 16, NOTE_DS6, 16, NOTE_DS5, 16, NOTE_CS6, 16, NOTE_DS5, 16, NOTE_B5, 16, NOTE_DS5, 16,

        NOTE_AS5, 16, NOTE_DS5, 16, NOTE_B5, 16, NOTE_DS5, 16, NOTE_AS5, 16, NOTE_DS5, 16, NOTE_GS5, 16, NOTE_DS5, 16, // 94
        NOTE_AS5, 16, NOTE_DS5, 16, NOTE_B5, 16, NOTE_DS5, 16, NOTE_CS6, 16, NOTE_DS5, 16, NOTE_B5, 16, NOTE_DS5, 16,
        NOTE_AS5, 16, NOTE_DS5, 16, NOTE_FS5, 16, NOTE_DS5, 16, NOTE_AS5, 16, NOTE_DS5, 16, NOTE_GS5, 16, NOTE_DS5, 16,
        NOTE_GS5, 16, NOTE_DS5, 16, NOTE_DS6, 16, NOTE_DS5, 16, NOTE_CS6, 16, NOTE_DS5, 16, NOTE_B5, 16, NOTE_DS5, 16,

        NOTE_AS5, 16, NOTE_DS5, 16, NOTE_B5, 16, NOTE_DS5, 16, NOTE_AS5, 16, NOTE_DS5, 16, NOTE_GS5, 16, NOTE_DS5, 16, // 98
        NOTE_AS5, 16, NOTE_DS5, 16, NOTE_B5, 16, NOTE_DS5, 16, NOTE_CS6, 16, NOTE_DS5, 16, NOTE_B5, 16, NOTE_DS5, 16,
        NOTE_AS5, 16, NOTE_DS5, 16, NOTE_FS5, 16, NOTE_DS5, 16, NOTE_AS5, 16, NOTE_DS5, 16, NOTE_GS5, 16, NOTE_DS5, 16,
        NOTE_GS5, 16, NOTE_DS5, 16, NOTE_DS6, 16, NOTE_DS5, 16, NOTE_CS6, 16, NOTE_DS5, 16, NOTE_B5, 16, NOTE_DS5, 16,

        NOTE_AS5, 16, NOTE_DS5, 16, NOTE_B5, 16, NOTE_DS5, 16, NOTE_AS5, 16, NOTE_DS5, 16, NOTE_GS5, 16, NOTE_DS5, 16, // 102
        NOTE_AS5, 16, NOTE_DS5, 16, NOTE_B5, 16, NOTE_DS5, 16, NOTE_CS6, 16, NOTE_DS5, 16, NOTE_B5, 16, NOTE_DS5, 16,
        NOTE_AS5, 16, NOTE_DS5, 16, NOTE_FS5, 16, NOTE_DS5, 16, NOTE_AS5, 16, NOTE_DS5, 16, NOTE_GS5, 16, NOTE_DS5, 16,

        NOTE_CS6, 8, NOTE_FS6, 16, NOTE_DS6, 8, REST, 16, REST, 8, // 107
        REST, 4, NOTE_CS6, 8, NOTE_B5, 8,
        NOTE_CS6, -8, NOTE_FS6, -8, NOTE_DS6, -4,
        NOTE_CS6, 8, NOTE_B5, 8,
        NOTE_CS6, 8, NOTE_FS6, 16, NOTE_DS6, 8, REST, 16, REST, 8,
        REST, 4, NOTE_CS6, 8, NOTE_B5, 8,
        NOTE_E6, -8, NOTE_F6, -8,

        NOTE_DS6, -8, REST, 16, NOTE_E6, 8, REST, 16, REST, 16, // 112
        NOTE_CS6, 8, NOTE_FS6, 16, NOTE_DS6, 8, REST, 16, REST, 8,
        REST, 4, NOTE_CS6, 8, NOTE_B5, 8,
        NOTE_CS6, -8, NOTE_FS6, -8, NOTE_DS6, -4,
        NOTE_CS6, 8, NOTE_B5, 8,

        NOTE_CS6, 8, NOTE_FS6, 16, NOTE_DS6, 8, REST, 16, REST, 8, // 117
        REST, 4, NOTE_CS5, 8, NOTE_DS5, 8,
        NOTE_E5, -8, NOTE_F5, -8,
        NOTE_DS5, 8, NOTE_G5, 8, NOTE_GS5, 8, NOTE_AS5, 8,
        NOTE_AS5, -8, NOTE_GS5, -8,

        NOTE_AS5, -8, NOTE_GS5, -8, // 122
        NOTE_AS5, -8, NOTE_GS5, -8,
        NOTE_B6, 8, NOTE_AS5, 8, NOTE_GS5, 8, NOTE_FS5, 8,
        NOTE_AS5, -8, NOTE_GS6, -8, NOTE_DS5, 8,
        NOTE_AS5, -8, NOTE_GS6, -8, NOTE_DS5, 8,
        NOTE_AS5, -8, NOTE_GS6, -8, NOTE_DS5, 8,

        NOTE_B5, 8, NOTE_CS6, 8, NOTE_AS5, 8, NOTE_B5, 8, // 128
        NOTE_GS5, 8, REST, 8, REST, 16

    }};
Melody wiegenlied{
    "Wiegenlied",
    76,
    108,
    {

        // Wiegenlied (Brahms' Lullaby)
        // Score available at https://www.flutetunes.com/tunes.php?id=54

        NOTE_G4, 4, NOTE_G4, 4, // 1
        NOTE_AS4, -4, NOTE_G4, 8, NOTE_G4, 4,
        NOTE_AS4, 4, REST, 4, NOTE_G4, 8, NOTE_AS4, 8,
        NOTE_DS5, 4, NOTE_D5, -4, NOTE_C5, 8,
        NOTE_C5, 4, NOTE_AS4, 4, NOTE_F4, 8, NOTE_G4, 8,
        NOTE_GS4, 4, NOTE_F4, 4, NOTE_F4, 8, NOTE_G4, 8,
        NOTE_GS4, 4, REST, 4, NOTE_F4, 8, NOTE_GS4, 8,
        NOTE_D5, 8, NOTE_C5, 8, NOTE_AS4, 4, NOTE_D5, 4,

        NOTE_DS5, 4, REST, 4, NOTE_DS4, 8, NOTE_DS4, 8, // 8
        NOTE_DS5, 2, NOTE_C5, 8, NOTE_GS4, 8,
        NOTE_AS4, 2, NOTE_G4, 8, NOTE_DS4, 8,
        NOTE_GS4, 4, NOTE_AS4, 4, NOTE_C5, 4,
        NOTE_AS4, 2, NOTE_DS4, 8, NOTE_DS4, 8,
        NOTE_DS5, 2, NOTE_C5, 8, NOTE_GS4, 8,
        NOTE_AS4, 2, NOTE_G4, 8, NOTE_DS4, 8,
        NOTE_AS4, 4, NOTE_G4, 4, NOTE_DS4, 4,
        NOTE_DS4, 2

    }};
Melody cannonInD = {
    "Cannon in D",
    100,
    248,
    {

        // Cannon in D - Pachelbel
        // Score available at https://musescore.com/user/4710311/scores/1975521
        // C F
        NOTE_FS4,
        2,
        NOTE_E4,
        2,
        NOTE_D4,
        2,
        NOTE_CS4,
        2,
        NOTE_B3,
        2,
        NOTE_A3,
        2,
        NOTE_B3,
        2,
        NOTE_CS4,
        2,
        NOTE_FS4,
        2,
        NOTE_E4,
        2,
        NOTE_D4,
        2,
        NOTE_CS4,
        2,
        NOTE_B3,
        2,
        NOTE_A3,
        2,
        NOTE_B3,
        2,
        NOTE_CS4,
        2,
        NOTE_D4,
        2,
        NOTE_CS4,
        2,
        NOTE_B3,
        2,
        NOTE_A3,
        2,
        NOTE_G3,
        2,
        NOTE_FS3,
        2,
        NOTE_G3,
        2,
        NOTE_A3,
        2,

        NOTE_D4,
        4,
        NOTE_FS4,
        8,
        NOTE_G4,
        8,
        NOTE_A4,
        4,
        NOTE_FS4,
        8,
        NOTE_G4,
        8,
        NOTE_A4,
        4,
        NOTE_B3,
        8,
        NOTE_CS4,
        8,
        NOTE_D4,
        8,
        NOTE_E4,
        8,
        NOTE_FS4,
        8,
        NOTE_G4,
        8,
        NOTE_FS4,
        4,
        NOTE_D4,
        8,
        NOTE_E4,
        8,
        NOTE_FS4,
        4,
        NOTE_FS3,
        8,
        NOTE_G3,
        8,
        NOTE_A3,
        8,
        NOTE_G3,
        8,
        NOTE_FS3,
        8,
        NOTE_G3,
        8,
        NOTE_A3,
        2,
        NOTE_G3,
        4,
        NOTE_B3,
        8,
        NOTE_A3,
        8,
        NOTE_G3,
        4,
        NOTE_FS3,
        8,
        NOTE_E3,
        8,
        NOTE_FS3,
        4,
        NOTE_D3,
        8,
        NOTE_E3,
        8,
        NOTE_FS3,
        8,
        NOTE_G3,
        8,
        NOTE_A3,
        8,
        NOTE_B3,
        8,

        NOTE_G3,
        4,
        NOTE_B3,
        8,
        NOTE_A3,
        8,
        NOTE_B3,
        4,
        NOTE_CS4,
        8,
        NOTE_D4,
        8,
        NOTE_A3,
        8,
        NOTE_B3,
        8,
        NOTE_CS4,
        8,
        NOTE_D4,
        8,
        NOTE_E4,
        8,
        NOTE_FS4,
        8,
        NOTE_G4,
        8,
        NOTE_A4,
        2,
        NOTE_A4,
        4,
        NOTE_FS4,
        8,
        NOTE_G4,
        8,
        NOTE_A4,
        4,
        NOTE_FS4,
        8,
        NOTE_G4,
        8,
        NOTE_A4,
        8,
        NOTE_A3,
        8,
        NOTE_B3,
        8,
        NOTE_CS4,
        8,
        NOTE_D4,
        8,
        NOTE_E4,
        8,
        NOTE_FS4,
        8,
        NOTE_G4,
        8,
        NOTE_FS4,
        4,
        NOTE_D4,
        8,
        NOTE_E4,
        8,
        NOTE_FS4,
        8,
        NOTE_CS4,
        8,
        NOTE_A3,
        8,
        NOTE_A3,
        8,

        NOTE_CS4,
        4,
        NOTE_B3,
        4,
        NOTE_D4,
        8,
        NOTE_CS4,
        8,
        NOTE_B3,
        4,
        NOTE_A3,
        8,
        NOTE_G3,
        8,
        NOTE_A3,
        4,
        NOTE_D3,
        8,
        NOTE_E3,
        8,
        NOTE_FS3,
        8,
        NOTE_G3,
        8,
        NOTE_A3,
        8,
        NOTE_B3,
        4,
        NOTE_G3,
        4,
        NOTE_B3,
        8,
        NOTE_A3,
        8,
        NOTE_B3,
        4,
        NOTE_CS4,
        8,
        NOTE_D4,
        8,
        NOTE_A3,
        8,
        NOTE_B3,
        8,
        NOTE_CS4,
        8,
        NOTE_D4,
        8,
        NOTE_E4,
        8,
        NOTE_FS4,
        8,
        NOTE_G4,
        8,
        NOTE_A4,
        2,
    }

};
Melody cantinaBand = {
    "Cantina Band",
    140,
    128,
    {

        // Cantina BAnd - Star wars
        // Score available at https://musescore.com/user/6795541/scores/1606876
        NOTE_B4,
        -4,
        NOTE_E5,
        -4,
        NOTE_B4,
        -4,
        NOTE_E5,
        -4,
        NOTE_B4,
        8,
        NOTE_E5,
        -4,
        NOTE_B4,
        8,
        REST,
        8,
        NOTE_AS4,
        8,
        NOTE_B4,
        8,
        NOTE_B4,
        8,
        NOTE_AS4,
        8,
        NOTE_B4,
        8,
        NOTE_A4,
        8,
        REST,
        8,
        NOTE_GS4,
        8,
        NOTE_A4,
        8,
        NOTE_G4,
        8,
        NOTE_G4,
        4,
        NOTE_E4,
        -2,
        NOTE_B4,
        -4,
        NOTE_E5,
        -4,
        NOTE_B4,
        -4,
        NOTE_E5,
        -4,
        NOTE_B4,
        8,
        NOTE_E5,
        -4,
        NOTE_B4,
        8,
        REST,
        8,
        NOTE_AS4,
        8,
        NOTE_B4,
        8,

        NOTE_A4,
        -4,
        NOTE_A4,
        -4,
        NOTE_GS4,
        8,
        NOTE_A4,
        -4,
        NOTE_D5,
        8,
        NOTE_C5,
        -4,
        NOTE_B4,
        -4,
        NOTE_A4,
        -4,
        NOTE_B4,
        -4,
        NOTE_E5,
        -4,
        NOTE_B4,
        -4,
        NOTE_E5,
        -4,
        NOTE_B4,
        8,
        NOTE_E5,
        -4,
        NOTE_B4,
        8,
        REST,
        8,
        NOTE_AS4,
        8,
        NOTE_B4,
        8,
        NOTE_D5,
        4,
        NOTE_D5,
        -4,
        NOTE_B4,
        8,
        NOTE_A4,
        -4,
        NOTE_G4,
        -4,
        NOTE_E4,
        -2,
        NOTE_E4,
        2,
        NOTE_G4,
        2,
        NOTE_B4,
        2,
        NOTE_D5,
        2,

        NOTE_F5,
        -4,
        NOTE_E5,
        -4,
        NOTE_AS4,
        8,
        NOTE_AS4,
        8,
        NOTE_B4,
        4,
        NOTE_G4,
        4,

    }};
Melody atDoomSGate = {
    "At Doom's Gate",
    225,
    1360,
    {

        // At Doom's Gate (E1M1)
        // Score available at https://musescore.com/pieridot/doom

        NOTE_E2,
        8,
        NOTE_E2,
        8,
        NOTE_E3,
        8,
        NOTE_E2,
        8,
        NOTE_E2,
        8,
        NOTE_D3,
        8,
        NOTE_E2,
        8,
        NOTE_E2,
        8, // 1
        NOTE_C3,
        8,
        NOTE_E2,
        8,
        NOTE_E2,
        8,
        NOTE_AS2,
        8,
        NOTE_E2,
        8,
        NOTE_E2,
        8,
        NOTE_B2,
        8,
        NOTE_C3,
        8,
        NOTE_E2,
        8,
        NOTE_E2,
        8,
        NOTE_E3,
        8,
        NOTE_E2,
        8,
        NOTE_E2,
        8,
        NOTE_D3,
        8,
        NOTE_E2,
        8,
        NOTE_E2,
        8,
        NOTE_C3,
        8,
        NOTE_E2,
        8,
        NOTE_E2,
        8,
        NOTE_AS2,
        -2,

        NOTE_E2,
        8,
        NOTE_E2,
        8,
        NOTE_E3,
        8,
        NOTE_E2,
        8,
        NOTE_E2,
        8,
        NOTE_D3,
        8,
        NOTE_E2,
        8,
        NOTE_E2,
        8, // 5
        NOTE_C3,
        8,
        NOTE_E2,
        8,
        NOTE_E2,
        8,
        NOTE_AS2,
        8,
        NOTE_E2,
        8,
        NOTE_E2,
        8,
        NOTE_B2,
        8,
        NOTE_C3,
        8,
        NOTE_E2,
        8,
        NOTE_E2,
        8,
        NOTE_E3,
        8,
        NOTE_E2,
        8,
        NOTE_E2,
        8,
        NOTE_D3,
        8,
        NOTE_E2,
        8,
        NOTE_E2,
        8,
        NOTE_C3,
        8,
        NOTE_E2,
        8,
        NOTE_E2,
        8,
        NOTE_AS2,
        -2,

        NOTE_E2,
        8,
        NOTE_E2,
        8,
        NOTE_E3,
        8,
        NOTE_E2,
        8,
        NOTE_E2,
        8,
        NOTE_D3,
        8,
        NOTE_E2,
        8,
        NOTE_E2,
        8, // 9
        NOTE_C3,
        8,
        NOTE_E2,
        8,
        NOTE_E2,
        8,
        NOTE_AS2,
        8,
        NOTE_E2,
        8,
        NOTE_E2,
        8,
        NOTE_B2,
        8,
        NOTE_C3,
        8,
        NOTE_E2,
        8,
        NOTE_E2,
        8,
        NOTE_E3,
        8,
        NOTE_E2,
        8,
        NOTE_E2,
        8,
        NOTE_D3,
        8,
        NOTE_E2,
        8,
        NOTE_E2,
        8,
        NOTE_C3,
        8,
        NOTE_E2,
        8,
        NOTE_E2,
        8,
        NOTE_AS2,
        -2,

        NOTE_E2,
        8,
        NOTE_E2,
        8,
        NOTE_E3,
        8,
        NOTE_E2,
        8,
        NOTE_E2,
        8,
        NOTE_D3,
        8,
        NOTE_E2,
        8,
        NOTE_E2,
        8, // 13
        NOTE_C3,
        8,
        NOTE_E2,
        8,
        NOTE_E2,
        8,
        NOTE_AS2,
        8,
        NOTE_E2,
        8,
        NOTE_E2,
        8,
        NOTE_B2,
        8,
        NOTE_C3,
        8,
        NOTE_E2,
        8,
        NOTE_E2,
        8,
        NOTE_E3,
        8,
        NOTE_E2,
        8,
        NOTE_E2,
        8,
        NOTE_D3,
        8,
        NOTE_E2,
        8,
        NOTE_E2,
        8,
        NOTE_FS3,
        -16,
        NOTE_D3,
        -16,
        NOTE_B2,
        -16,
        NOTE_A3,
        -16,
        NOTE_FS3,
        -16,
        NOTE_B2,
        -16,
        NOTE_D3,
        -16,
        NOTE_FS3,
        -16,
        NOTE_A3,
        -16,
        NOTE_FS3,
        -16,
        NOTE_D3,
        -16,
        NOTE_B2,
        -16,

        NOTE_E2,
        8,
        NOTE_E2,
        8,
        NOTE_E3,
        8,
        NOTE_E2,
        8,
        NOTE_E2,
        8,
        NOTE_D3,
        8,
        NOTE_E2,
        8,
        NOTE_E2,
        8, // 17
        NOTE_C3,
        8,
        NOTE_E2,
        8,
        NOTE_E2,
        8,
        NOTE_AS2,
        8,
        NOTE_E2,
        8,
        NOTE_E2,
        8,
        NOTE_B2,
        8,
        NOTE_C3,
        8,
        NOTE_E2,
        8,
        NOTE_E2,
        8,
        NOTE_E3,
        8,
        NOTE_E2,
        8,
        NOTE_E2,
        8,
        NOTE_D3,
        8,
        NOTE_E2,
        8,
        NOTE_E2,
        8,
        NOTE_C3,
        8,
        NOTE_E2,
        8,
        NOTE_E2,
        8,
        NOTE_AS2,
        -2,

        NOTE_E2,
        8,
        NOTE_E2,
        8,
        NOTE_E3,
        8,
        NOTE_E2,
        8,
        NOTE_E2,
        8,
        NOTE_D3,
        8,
        NOTE_E2,
        8,
        NOTE_E2,
        8, // 21
        NOTE_C3,
        8,
        NOTE_E2,
        8,
        NOTE_E2,
        8,
        NOTE_AS2,
        8,
        NOTE_E2,
        8,
        NOTE_E2,
        8,
        NOTE_B2,
        8,
        NOTE_C3,
        8,
        NOTE_E2,
        8,
        NOTE_E2,
        8,
        NOTE_E3,
        8,
        NOTE_E2,
        8,
        NOTE_E2,
        8,
        NOTE_D3,
        8,
        NOTE_E2,
        8,
        NOTE_E2,
        8,
        NOTE_B3,
        -16,
        NOTE_G3,
        -16,
        NOTE_E3,
        -16,
        NOTE_G3,
        -16,
        NOTE_B3,
        -16,
        NOTE_E4,
        -16,
        NOTE_G3,
        -16,
        NOTE_B3,
        -16,
        NOTE_E4,
        -16,
        NOTE_B3,
        -16,
        NOTE_G4,
        -16,
        NOTE_B4,
        -16,

        NOTE_A2,
        8,
        NOTE_A2,
        8,
        NOTE_A3,
        8,
        NOTE_A2,
        8,
        NOTE_A2,
        8,
        NOTE_G3,
        8,
        NOTE_A2,
        8,
        NOTE_A2,
        8, // 25
        NOTE_F3,
        8,
        NOTE_A2,
        8,
        NOTE_A2,
        8,
        NOTE_DS3,
        8,
        NOTE_A2,
        8,
        NOTE_A2,
        8,
        NOTE_E3,
        8,
        NOTE_F3,
        8,
        NOTE_A2,
        8,
        NOTE_A2,
        8,
        NOTE_A3,
        8,
        NOTE_A2,
        8,
        NOTE_A2,
        8,
        NOTE_G3,
        8,
        NOTE_A2,
        8,
        NOTE_A2,
        8,
        NOTE_F3,
        8,
        NOTE_A2,
        8,
        NOTE_A2,
        8,
        NOTE_DS3,
        -2,

        NOTE_A2,
        8,
        NOTE_A2,
        8,
        NOTE_A3,
        8,
        NOTE_A2,
        8,
        NOTE_A2,
        8,
        NOTE_G3,
        8,
        NOTE_A2,
        8,
        NOTE_A2,
        8, // 29
        NOTE_F3,
        8,
        NOTE_A2,
        8,
        NOTE_A2,
        8,
        NOTE_DS3,
        8,
        NOTE_A2,
        8,
        NOTE_A2,
        8,
        NOTE_E3,
        8,
        NOTE_F3,
        8,
        NOTE_A2,
        8,
        NOTE_A2,
        8,
        NOTE_A3,
        8,
        NOTE_A2,
        8,
        NOTE_A2,
        8,
        NOTE_G3,
        8,
        NOTE_A2,
        8,
        NOTE_A2,
        8,
        NOTE_A3,
        -16,
        NOTE_F3,
        -16,
        NOTE_D3,
        -16,
        NOTE_A3,
        -16,
        NOTE_F3,
        -16,
        NOTE_D3,
        -16,
        NOTE_C4,
        -16,
        NOTE_A3,
        -16,
        NOTE_F3,
        -16,
        NOTE_A3,
        -16,
        NOTE_F3,
        -16,
        NOTE_D3,
        -16,

        NOTE_E2,
        8,
        NOTE_E2,
        8,
        NOTE_E3,
        8,
        NOTE_E2,
        8,
        NOTE_E2,
        8,
        NOTE_D3,
        8,
        NOTE_E2,
        8,
        NOTE_E2,
        8, // 33
        NOTE_C3,
        8,
        NOTE_E2,
        8,
        NOTE_E2,
        8,
        NOTE_AS2,
        8,
        NOTE_E2,
        8,
        NOTE_E2,
        8,
        NOTE_B2,
        8,
        NOTE_C3,
        8,
        NOTE_E2,
        8,
        NOTE_E2,
        8,
        NOTE_E3,
        8,
        NOTE_E2,
        8,
        NOTE_E2,
        8,
        NOTE_D3,
        8,
        NOTE_E2,
        8,
        NOTE_E2,
        8,
        NOTE_C3,
        8,
        NOTE_E2,
        8,
        NOTE_E2,
        8,
        NOTE_AS2,
        -2,

        NOTE_E2,
        8,
        NOTE_E2,
        8,
        NOTE_E3,
        8,
        NOTE_E2,
        8,
        NOTE_E2,
        8,
        NOTE_D3,
        8,
        NOTE_E2,
        8,
        NOTE_E2,
        8, // 37
        NOTE_C3,
        8,
        NOTE_E2,
        8,
        NOTE_E2,
        8,
        NOTE_AS2,
        8,
        NOTE_E2,
        8,
        NOTE_E2,
        8,
        NOTE_B2,
        8,
        NOTE_C3,
        8,
        NOTE_E2,
        8,
        NOTE_E2,
        8,
        NOTE_E3,
        8,
        NOTE_E2,
        8,
        NOTE_E2,
        8,
        NOTE_D3,
        8,
        NOTE_E2,
        8,
        NOTE_E2,
        8,
        NOTE_C3,
        8,
        NOTE_E2,
        8,
        NOTE_E2,
        8,
        NOTE_AS2,
        -2,

        NOTE_CS3,
        8,
        NOTE_CS3,
        8,
        NOTE_CS4,
        8,
        NOTE_CS3,
        8,
        NOTE_CS3,
        8,
        NOTE_B3,
        8,
        NOTE_CS3,
        8,
        NOTE_CS3,
        8, // 41
        NOTE_A3,
        8,
        NOTE_CS3,
        8,
        NOTE_CS3,
        8,
        NOTE_G3,
        8,
        NOTE_CS3,
        8,
        NOTE_CS3,
        8,
        NOTE_GS3,
        8,
        NOTE_A3,
        8,
        NOTE_B2,
        8,
        NOTE_B2,
        8,
        NOTE_B3,
        8,
        NOTE_B2,
        8,
        NOTE_B2,
        8,
        NOTE_A3,
        8,
        NOTE_B2,
        8,
        NOTE_B2,
        8,
        NOTE_G3,
        8,
        NOTE_B2,
        8,
        NOTE_B2,
        8,
        NOTE_F3,
        -2,

        NOTE_E2,
        8,
        NOTE_E2,
        8,
        NOTE_E3,
        8,
        NOTE_E2,
        8,
        NOTE_E2,
        8,
        NOTE_D3,
        8,
        NOTE_E2,
        8,
        NOTE_E2,
        8, // 45
        NOTE_C3,
        8,
        NOTE_E2,
        8,
        NOTE_E2,
        8,
        NOTE_AS2,
        8,
        NOTE_E2,
        8,
        NOTE_E2,
        8,
        NOTE_B2,
        8,
        NOTE_C3,
        8,
        NOTE_E2,
        8,
        NOTE_E2,
        8,
        NOTE_E3,
        8,
        NOTE_E2,
        8,
        NOTE_E2,
        8,
        NOTE_D3,
        8,
        NOTE_E2,
        8,
        NOTE_E2,
        8,
        NOTE_B3,
        -16,
        NOTE_G3,
        -16,
        NOTE_E3,
        -16,
        NOTE_G3,
        -16,
        NOTE_B3,
        -16,
        NOTE_E4,
        -16,
        NOTE_G3,
        -16,
        NOTE_B3,
        -16,
        NOTE_E4,
        -16,
        NOTE_B3,
        -16,
        NOTE_G4,
        -16,
        NOTE_B4,
        -16,

        NOTE_E2,
        8,
        NOTE_E2,
        8,
        NOTE_E3,
        8,
        NOTE_E2,
        8,
        NOTE_E2,
        8,
        NOTE_D3,
        8,
        NOTE_E2,
        8,
        NOTE_E2,
        8, // 49
        NOTE_C3,
        8,
        NOTE_E2,
        8,
        NOTE_E2,
        8,
        NOTE_AS2,
        8,
        NOTE_E2,
        8,
        NOTE_E2,
        8,
        NOTE_B2,
        8,
        NOTE_C3,
        8,
        NOTE_E2,
        8,
        NOTE_E2,
        8,
        NOTE_E3,
        8,
        NOTE_E2,
        8,
        NOTE_E2,
        8,
        NOTE_D3,
        8,
        NOTE_E2,
        8,
        NOTE_E2,
        8,
        NOTE_C3,
        8,
        NOTE_E2,
        8,
        NOTE_E2,
        8,
        NOTE_AS2,
        -2,

        NOTE_E2,
        8,
        NOTE_E2,
        8,
        NOTE_E3,
        8,
        NOTE_E2,
        8,
        NOTE_E2,
        8,
        NOTE_D3,
        8,
        NOTE_E2,
        8,
        NOTE_E2,
        8, // 53
        NOTE_C3,
        8,
        NOTE_E2,
        8,
        NOTE_E2,
        8,
        NOTE_AS2,
        8,
        NOTE_E2,
        8,
        NOTE_E2,
        8,
        NOTE_B2,
        8,
        NOTE_C3,
        8,
        NOTE_E2,
        8,
        NOTE_E2,
        8,
        NOTE_E3,
        8,
        NOTE_E2,
        8,
        NOTE_E2,
        8,
        NOTE_D3,
        8,
        NOTE_E2,
        8,
        NOTE_E2,
        8,
        NOTE_FS3,
        -16,
        NOTE_DS3,
        -16,
        NOTE_B2,
        -16,
        NOTE_FS3,
        -16,
        NOTE_DS3,
        -16,
        NOTE_B2,
        -16,
        NOTE_G3,
        -16,
        NOTE_D3,
        -16,
        NOTE_B2,
        -16,
        NOTE_DS4,
        -16,
        NOTE_DS3,
        -16,
        NOTE_B2,
        -16,

        // -/-

        NOTE_E2,
        8,
        NOTE_E2,
        8,
        NOTE_E3,
        8,
        NOTE_E2,
        8,
        NOTE_E2,
        8,
        NOTE_D3,
        8,
        NOTE_E2,
        8,
        NOTE_E2,
        8, // 57
        NOTE_C3,
        8,
        NOTE_E2,
        8,
        NOTE_E2,
        8,
        NOTE_AS2,
        8,
        NOTE_E2,
        8,
        NOTE_E2,
        8,
        NOTE_B2,
        8,
        NOTE_C3,
        8,
        NOTE_E2,
        8,
        NOTE_E2,
        8,
        NOTE_E3,
        8,
        NOTE_E2,
        8,
        NOTE_E2,
        8,
        NOTE_D3,
        8,
        NOTE_E2,
        8,
        NOTE_E2,
        8,
        NOTE_C3,
        8,
        NOTE_E2,
        8,
        NOTE_E2,
        8,
        NOTE_AS2,
        -2,

        NOTE_E2,
        8,
        NOTE_E2,
        8,
        NOTE_E3,
        8,
        NOTE_E2,
        8,
        NOTE_E2,
        8,
        NOTE_D3,
        8,
        NOTE_E2,
        8,
        NOTE_E2,
        8, // 61
        NOTE_C3,
        8,
        NOTE_E2,
        8,
        NOTE_E2,
        8,
        NOTE_AS2,
        8,
        NOTE_E2,
        8,
        NOTE_E2,
        8,
        NOTE_B2,
        8,
        NOTE_C3,
        8,
        NOTE_E2,
        8,
        NOTE_E2,
        8,
        NOTE_E3,
        8,
        NOTE_E2,
        8,
        NOTE_E2,
        8,
        NOTE_D3,
        8,
        NOTE_E2,
        8,
        NOTE_E2,
        8,
        NOTE_E4,
        -16,
        NOTE_B3,
        -16,
        NOTE_G3,
        -16,
        NOTE_G4,
        -16,
        NOTE_E4,
        -16,
        NOTE_G3,
        -16,
        NOTE_B3,
        -16,
        NOTE_D4,
        -16,
        NOTE_E4,
        -16,
        NOTE_G4,
        -16,
        NOTE_E4,
        -16,
        NOTE_G3,
        -16,

        NOTE_E2,
        8,
        NOTE_E2,
        8,
        NOTE_E3,
        8,
        NOTE_E2,
        8,
        NOTE_E2,
        8,
        NOTE_D3,
        8,
        NOTE_E2,
        8,
        NOTE_E2,
        8, // 65
        NOTE_C3,
        8,
        NOTE_E2,
        8,
        NOTE_E2,
        8,
        NOTE_AS2,
        8,
        NOTE_E2,
        8,
        NOTE_E2,
        8,
        NOTE_B2,
        8,
        NOTE_C3,
        8,
        NOTE_E2,
        8,
        NOTE_E2,
        8,
        NOTE_E3,
        8,
        NOTE_E2,
        8,
        NOTE_E2,
        8,
        NOTE_D3,
        8,
        NOTE_E2,
        8,
        NOTE_E2,
        8,
        NOTE_C3,
        8,
        NOTE_E2,
        8,
        NOTE_E2,
        8,
        NOTE_AS2,
        -2,

        NOTE_A2,
        8,
        NOTE_A2,
        8,
        NOTE_A3,
        8,
        NOTE_A2,
        8,
        NOTE_A2,
        8,
        NOTE_G3,
        8,
        NOTE_A2,
        8,
        NOTE_A2,
        8, // 69
        NOTE_F3,
        8,
        NOTE_A2,
        8,
        NOTE_A2,
        8,
        NOTE_DS3,
        8,
        NOTE_A2,
        8,
        NOTE_A2,
        8,
        NOTE_E3,
        8,
        NOTE_F3,
        8,
        NOTE_A2,
        8,
        NOTE_A2,
        8,
        NOTE_A3,
        8,
        NOTE_A2,
        8,
        NOTE_A2,
        8,
        NOTE_G3,
        8,
        NOTE_A2,
        8,
        NOTE_A2,
        8,
        NOTE_A3,
        -16,
        NOTE_F3,
        -16,
        NOTE_D3,
        -16,
        NOTE_A3,
        -16,
        NOTE_F3,
        -16,
        NOTE_D3,
        -16,
        NOTE_C4,
        -16,
        NOTE_A3,
        -16,
        NOTE_F3,
        -16,
        NOTE_A3,
        -16,
        NOTE_F3,
        -16,
        NOTE_D3,
        -16,

        NOTE_E2,
        8,
        NOTE_E2,
        8,
        NOTE_E3,
        8,
        NOTE_E2,
        8,
        NOTE_E2,
        8,
        NOTE_D3,
        8,
        NOTE_E2,
        8,
        NOTE_E2,
        8, // 73
        NOTE_C3,
        8,
        NOTE_E2,
        8,
        NOTE_E2,
        8,
        NOTE_AS2,
        8,
        NOTE_E2,
        8,
        NOTE_E2,
        8,
        NOTE_B2,
        8,
        NOTE_C3,
        8,
        NOTE_E2,
        8,
        NOTE_E2,
        8,
        NOTE_E3,
        8,
        NOTE_E2,
        8,
        NOTE_E2,
        8,
        NOTE_D3,
        8,
        NOTE_E2,
        8,
        NOTE_E2,
        8,
        NOTE_C3,
        8,
        NOTE_E2,
        8,
        NOTE_E2,
        8,
        NOTE_AS2,
        -2,

        NOTE_E2,
        8,
        NOTE_E2,
        8,
        NOTE_E3,
        8,
        NOTE_E2,
        8,
        NOTE_E2,
        8,
        NOTE_D3,
        8,
        NOTE_E2,
        8,
        NOTE_E2,
        8, // 77
        NOTE_C3,
        8,
        NOTE_E2,
        8,
        NOTE_E2,
        8,
        NOTE_AS2,
        8,
        NOTE_E2,
        8,
        NOTE_E2,
        8,
        NOTE_B2,
        8,
        NOTE_C3,
        8,
        NOTE_E2,
        8,
        NOTE_E2,
        8,
        NOTE_E3,
        8,
        NOTE_E2,
        8,
        NOTE_E2,
        8,
        NOTE_D3,
        8,
        NOTE_E2,
        8,
        NOTE_E2,
        8,
        NOTE_C3,
        8,
        NOTE_E2,
        8,
        NOTE_E2,
        8,
        NOTE_AS2,
        -2,

        NOTE_E2,
        8,
        NOTE_E2,
        8,
        NOTE_E3,
        8,
        NOTE_E2,
        8,
        NOTE_E2,
        8,
        NOTE_D3,
        8,
        NOTE_E2,
        8,
        NOTE_E2,
        8, // 81
        NOTE_C3,
        8,
        NOTE_E2,
        8,
        NOTE_E2,
        8,
        NOTE_AS2,
        8,
        NOTE_E2,
        8,
        NOTE_E2,
        8,
        NOTE_B2,
        8,
        NOTE_C3,
        8,
        NOTE_E2,
        8,
        NOTE_E2,
        8,
        NOTE_E3,
        8,
        NOTE_E2,
        8,
        NOTE_E2,
        8,
        NOTE_D3,
        8,
        NOTE_E2,
        8,
        NOTE_E2,
        8,
        NOTE_C3,
        8,
        NOTE_E2,
        8,
        NOTE_E2,
        8,
        NOTE_AS2,
        -2,

        NOTE_E2,
        8,
        NOTE_E2,
        8,
        NOTE_E3,
        8,
        NOTE_E2,
        8,
        NOTE_E2,
        8,
        NOTE_D3,
        8,
        NOTE_E2,
        8,
        NOTE_E2,
        8, // 73
        NOTE_C3,
        8,
        NOTE_E2,
        8,
        NOTE_E2,
        8,
        NOTE_AS2,
        8,
        NOTE_E2,
        8,
        NOTE_E2,
        8,
        NOTE_B2,
        8,
        NOTE_C3,
        8,
        NOTE_E2,
        8,
        NOTE_E2,
        8,
        NOTE_E3,
        8,
        NOTE_E2,
        8,
        NOTE_E2,
        8,
        NOTE_D3,
        8,
        NOTE_E2,
        8,
        NOTE_E2,
        8,
        NOTE_B3,
        -16,
        NOTE_G3,
        -16,
        NOTE_E3,
        -16,
        NOTE_B2,
        -16,
        NOTE_E3,
        -16,
        NOTE_G3,
        -16,
        NOTE_C4,
        -16,
        NOTE_B3,
        -16,
        NOTE_G3,
        -16,
        NOTE_B3,
        -16,
        NOTE_G3,
        -16,
        NOTE_E3,
        -16,
    }};

Melody furElise = {
    "Fur Elise",
    80,
    1206,
    {

        // Fur Elise - Ludwig van Beethovem
        // Score available at https://musescore.com/user/28149610/scores/5281944

        // starts from 1 ending on 9
        NOTE_E5,
        16,
        NOTE_DS5,
        16, // 1
        NOTE_E5,
        16,
        NOTE_DS5,
        16,
        NOTE_E5,
        16,
        NOTE_B4,
        16,
        NOTE_D5,
        16,
        NOTE_C5,
        16,
        NOTE_A4,
        -8,
        NOTE_C4,
        16,
        NOTE_E4,
        16,
        NOTE_A4,
        16,
        NOTE_B4,
        -8,
        NOTE_E4,
        16,
        NOTE_GS4,
        16,
        NOTE_B4,
        16,
        NOTE_C5,
        8,
        REST,
        16,
        NOTE_E4,
        16,
        NOTE_E5,
        16,
        NOTE_DS5,
        16,

        NOTE_E5,
        16,
        NOTE_DS5,
        16,
        NOTE_E5,
        16,
        NOTE_B4,
        16,
        NOTE_D5,
        16,
        NOTE_C5,
        16, // 6
        NOTE_A4,
        -8,
        NOTE_C4,
        16,
        NOTE_E4,
        16,
        NOTE_A4,
        16,
        NOTE_B4,
        -8,
        NOTE_E4,
        16,
        NOTE_C5,
        16,
        NOTE_B4,
        16,
        NOTE_A4,
        4,
        REST,
        8, // 9 - 1st ending

        // repaets from 1 ending on 10
        NOTE_E5,
        16,
        NOTE_DS5,
        16, // 1
        NOTE_E5,
        16,
        NOTE_DS5,
        16,
        NOTE_E5,
        16,
        NOTE_B4,
        16,
        NOTE_D5,
        16,
        NOTE_C5,
        16,
        NOTE_A4,
        -8,
        NOTE_C4,
        16,
        NOTE_E4,
        16,
        NOTE_A4,
        16,
        NOTE_B4,
        -8,
        NOTE_E4,
        16,
        NOTE_GS4,
        16,
        NOTE_B4,
        16,
        NOTE_C5,
        8,
        REST,
        16,
        NOTE_E4,
        16,
        NOTE_E5,
        16,
        NOTE_DS5,
        16,

        NOTE_E5,
        16,
        NOTE_DS5,
        16,
        NOTE_E5,
        16,
        NOTE_B4,
        16,
        NOTE_D5,
        16,
        NOTE_C5,
        16, // 6
        NOTE_A4,
        -8,
        NOTE_C4,
        16,
        NOTE_E4,
        16,
        NOTE_A4,
        16,
        NOTE_B4,
        -8,
        NOTE_E4,
        16,
        NOTE_C5,
        16,
        NOTE_B4,
        16,
        NOTE_A4,
        8,
        REST,
        16,
        NOTE_B4,
        16,
        NOTE_C5,
        16,
        NOTE_D5,
        16, // 10 - 2nd ending
        // continues from 11
        NOTE_E5,
        -8,
        NOTE_G4,
        16,
        NOTE_F5,
        16,
        NOTE_E5,
        16,
        NOTE_D5,
        -8,
        NOTE_F4,
        16,
        NOTE_E5,
        16,
        NOTE_D5,
        16, // 12

        NOTE_C5,
        -8,
        NOTE_E4,
        16,
        NOTE_D5,
        16,
        NOTE_C5,
        16, // 13
        NOTE_B4,
        8,
        REST,
        16,
        NOTE_E4,
        16,
        NOTE_E5,
        16,
        REST,
        16,
        REST,
        16,
        NOTE_E5,
        16,
        NOTE_E6,
        16,
        REST,
        16,
        REST,
        16,
        NOTE_DS5,
        16,
        NOTE_E5,
        16,
        REST,
        16,
        REST,
        16,
        NOTE_DS5,
        16,
        NOTE_E5,
        16,
        NOTE_DS5,
        16,
        NOTE_E5,
        16,
        NOTE_DS5,
        16,
        NOTE_E5,
        16,
        NOTE_B4,
        16,
        NOTE_D5,
        16,
        NOTE_C5,
        16,
        NOTE_A4,
        8,
        REST,
        16,
        NOTE_C4,
        16,
        NOTE_E4,
        16,
        NOTE_A4,
        16,

        NOTE_B4,
        8,
        REST,
        16,
        NOTE_E4,
        16,
        NOTE_GS4,
        16,
        NOTE_B4,
        16, // 19
        NOTE_C5,
        8,
        REST,
        16,
        NOTE_E4,
        16,
        NOTE_E5,
        16,
        NOTE_DS5,
        16,
        NOTE_E5,
        16,
        NOTE_DS5,
        16,
        NOTE_E5,
        16,
        NOTE_B4,
        16,
        NOTE_D5,
        16,
        NOTE_C5,
        16,
        NOTE_A4,
        8,
        REST,
        16,
        NOTE_C4,
        16,
        NOTE_E4,
        16,
        NOTE_A4,
        16,
        NOTE_B4,
        8,
        REST,
        16,
        NOTE_E4,
        16,
        NOTE_C5,
        16,
        NOTE_B4,
        16,
        NOTE_A4,
        8,
        REST,
        16,
        NOTE_B4,
        16,
        NOTE_C5,
        16,
        NOTE_D5,
        16, // 24 (1st ending)

        // repeats from 11
        NOTE_E5,
        -8,
        NOTE_G4,
        16,
        NOTE_F5,
        16,
        NOTE_E5,
        16,
        NOTE_D5,
        -8,
        NOTE_F4,
        16,
        NOTE_E5,
        16,
        NOTE_D5,
        16, // 12

        NOTE_C5,
        -8,
        NOTE_E4,
        16,
        NOTE_D5,
        16,
        NOTE_C5,
        16, // 13
        NOTE_B4,
        8,
        REST,
        16,
        NOTE_E4,
        16,
        NOTE_E5,
        16,
        REST,
        16,
        REST,
        16,
        NOTE_E5,
        16,
        NOTE_E6,
        16,
        REST,
        16,
        REST,
        16,
        NOTE_DS5,
        16,
        NOTE_E5,
        16,
        REST,
        16,
        REST,
        16,
        NOTE_DS5,
        16,
        NOTE_E5,
        16,
        NOTE_DS5,
        16,
        NOTE_E5,
        16,
        NOTE_DS5,
        16,
        NOTE_E5,
        16,
        NOTE_B4,
        16,
        NOTE_D5,
        16,
        NOTE_C5,
        16,
        NOTE_A4,
        8,
        REST,
        16,
        NOTE_C4,
        16,
        NOTE_E4,
        16,
        NOTE_A4,
        16,

        NOTE_B4,
        8,
        REST,
        16,
        NOTE_E4,
        16,
        NOTE_GS4,
        16,
        NOTE_B4,
        16, // 19
        NOTE_C5,
        8,
        REST,
        16,
        NOTE_E4,
        16,
        NOTE_E5,
        16,
        NOTE_DS5,
        16,
        NOTE_E5,
        16,
        NOTE_DS5,
        16,
        NOTE_E5,
        16,
        NOTE_B4,
        16,
        NOTE_D5,
        16,
        NOTE_C5,
        16,
        NOTE_A4,
        8,
        REST,
        16,
        NOTE_C4,
        16,
        NOTE_E4,
        16,
        NOTE_A4,
        16,
        NOTE_B4,
        8,
        REST,
        16,
        NOTE_E4,
        16,
        NOTE_C5,
        16,
        NOTE_B4,
        16,
        NOTE_A4,
        8,
        REST,
        16,
        NOTE_C5,
        16,
        NOTE_C5,
        16,
        NOTE_C5,
        16, // 25 - 2nd ending

        // continues from 26
        NOTE_C5,
        4,
        NOTE_F5,
        -16,
        NOTE_E5,
        32, // 26
        NOTE_E5,
        8,
        NOTE_D5,
        8,
        NOTE_AS5,
        -16,
        NOTE_A5,
        32,
        NOTE_A5,
        16,
        NOTE_G5,
        16,
        NOTE_F5,
        16,
        NOTE_E5,
        16,
        NOTE_D5,
        16,
        NOTE_C5,
        16,
        NOTE_AS4,
        8,
        NOTE_A4,
        8,
        NOTE_A4,
        32,
        NOTE_G4,
        32,
        NOTE_A4,
        32,
        NOTE_B4,
        32,
        NOTE_C5,
        4,
        NOTE_D5,
        16,
        NOTE_DS5,
        16,
        NOTE_E5,
        -8,
        NOTE_E5,
        16,
        NOTE_F5,
        16,
        NOTE_A4,
        16,
        NOTE_C5,
        4,
        NOTE_D5,
        -16,
        NOTE_B4,
        32,

        NOTE_C5,
        32,
        NOTE_G5,
        32,
        NOTE_G4,
        32,
        NOTE_G5,
        32,
        NOTE_A4,
        32,
        NOTE_G5,
        32,
        NOTE_B4,
        32,
        NOTE_G5,
        32,
        NOTE_C5,
        32,
        NOTE_G5,
        32,
        NOTE_D5,
        32,
        NOTE_G5,
        32, // 33
        NOTE_E5,
        32,
        NOTE_G5,
        32,
        NOTE_C6,
        32,
        NOTE_B5,
        32,
        NOTE_A5,
        32,
        NOTE_G5,
        32,
        NOTE_F5,
        32,
        NOTE_E5,
        32,
        NOTE_D5,
        32,
        NOTE_G5,
        32,
        NOTE_F5,
        32,
        NOTE_D5,
        32,
        NOTE_C5,
        32,
        NOTE_G5,
        32,
        NOTE_G4,
        32,
        NOTE_G5,
        32,
        NOTE_A4,
        32,
        NOTE_G5,
        32,
        NOTE_B4,
        32,
        NOTE_G5,
        32,
        NOTE_C5,
        32,
        NOTE_G5,
        32,
        NOTE_D5,
        32,
        NOTE_G5,
        32,

        NOTE_E5,
        32,
        NOTE_G5,
        32,
        NOTE_C6,
        32,
        NOTE_B5,
        32,
        NOTE_A5,
        32,
        NOTE_G5,
        32,
        NOTE_F5,
        32,
        NOTE_E5,
        32,
        NOTE_D5,
        32,
        NOTE_G5,
        32,
        NOTE_F5,
        32,
        NOTE_D5,
        32, // 36
        NOTE_E5,
        32,
        NOTE_F5,
        32,
        NOTE_E5,
        32,
        NOTE_DS5,
        32,
        NOTE_E5,
        32,
        NOTE_B4,
        32,
        NOTE_E5,
        32,
        NOTE_DS5,
        32,
        NOTE_E5,
        32,
        NOTE_B4,
        32,
        NOTE_E5,
        32,
        NOTE_DS5,
        32,
        NOTE_E5,
        -8,
        NOTE_B4,
        16,
        NOTE_E5,
        16,
        NOTE_DS5,
        16,
        NOTE_E5,
        -8,
        NOTE_B4,
        16,
        NOTE_E5,
        16,
        REST,
        16,

        REST,
        16,
        NOTE_DS5,
        16,
        NOTE_E5,
        16,
        REST,
        16,
        REST,
        16,
        NOTE_DS5,
        16, // 40
        NOTE_E5,
        16,
        NOTE_DS5,
        16,
        NOTE_E5,
        16,
        NOTE_B4,
        16,
        NOTE_D5,
        16,
        NOTE_C5,
        16,
        NOTE_A4,
        8,
        REST,
        16,
        NOTE_C4,
        16,
        NOTE_E4,
        16,
        NOTE_A4,
        16,
        NOTE_B4,
        8,
        REST,
        16,
        NOTE_E4,
        16,
        NOTE_GS4,
        16,
        NOTE_B4,
        16,
        NOTE_C5,
        8,
        REST,
        16,
        NOTE_E4,
        16,
        NOTE_E5,
        16,
        NOTE_DS5,
        16,
        NOTE_E5,
        16,
        NOTE_DS5,
        16,
        NOTE_E5,
        16,
        NOTE_B4,
        16,
        NOTE_D5,
        16,
        NOTE_C5,
        16,

        NOTE_A4,
        8,
        REST,
        16,
        NOTE_C4,
        16,
        NOTE_E4,
        16,
        NOTE_A4,
        16, // 46
        NOTE_B4,
        8,
        REST,
        16,
        NOTE_E4,
        16,
        NOTE_C5,
        16,
        NOTE_B4,
        16,
        NOTE_A4,
        8,
        REST,
        16,
        NOTE_B4,
        16,
        NOTE_C5,
        16,
        NOTE_D5,
        16,
        NOTE_E5,
        -8,
        NOTE_G4,
        16,
        NOTE_F5,
        16,
        NOTE_E5,
        16,
        NOTE_D5,
        -8,
        NOTE_F4,
        16,
        NOTE_E5,
        16,
        NOTE_D5,
        16,
        NOTE_C5,
        -8,
        NOTE_E4,
        16,
        NOTE_D5,
        16,
        NOTE_C5,
        16,
        NOTE_B4,
        8,
        REST,
        16,
        NOTE_E4,
        16,
        NOTE_E5,
        16,
        REST,
        16,
        REST,
        16,
        NOTE_E5,
        16,
        NOTE_E6,
        16,
        REST,
        16,
        REST,
        16,
        NOTE_DS5,
        16,

        NOTE_E5,
        16,
        REST,
        16,
        REST,
        16,
        NOTE_DS5,
        16,
        NOTE_E5,
        16,
        NOTE_D5,
        16, // 54
        NOTE_E5,
        16,
        NOTE_DS5,
        16,
        NOTE_E5,
        16,
        NOTE_B4,
        16,
        NOTE_D5,
        16,
        NOTE_C5,
        16,
        NOTE_A4,
        8,
        REST,
        16,
        NOTE_C4,
        16,
        NOTE_E4,
        16,
        NOTE_A4,
        16,
        NOTE_B4,
        8,
        REST,
        16,
        NOTE_E4,
        16,
        NOTE_GS4,
        16,
        NOTE_B4,
        16,
        NOTE_C5,
        8,
        REST,
        16,
        NOTE_E4,
        16,
        NOTE_E5,
        16,
        NOTE_DS5,
        16,
        NOTE_E5,
        16,
        NOTE_DS5,
        16,
        NOTE_E5,
        16,
        NOTE_B4,
        16,
        NOTE_D5,
        16,
        NOTE_C5,
        16,

        NOTE_A4,
        8,
        REST,
        16,
        NOTE_C4,
        16,
        NOTE_E4,
        16,
        NOTE_A4,
        16, // 60
        NOTE_B4,
        8,
        REST,
        16,
        NOTE_E4,
        16,
        NOTE_C5,
        16,
        NOTE_B4,
        16,
        NOTE_A4,
        8,
        REST,
        16,
        REST,
        16,
        REST,
        8,
        NOTE_CS5,
        -4,
        NOTE_D5,
        4,
        NOTE_E5,
        16,
        NOTE_F5,
        16,
        NOTE_F5,
        4,
        NOTE_F5,
        8,
        NOTE_E5,
        -4,
        NOTE_D5,
        4,
        NOTE_C5,
        16,
        NOTE_B4,
        16,
        NOTE_A4,
        4,
        NOTE_A4,
        8,
        NOTE_A4,
        8,
        NOTE_C5,
        8,
        NOTE_B4,
        8,
        NOTE_A4,
        -4,
        NOTE_CS5,
        -4,

        NOTE_D5,
        4,
        NOTE_E5,
        16,
        NOTE_F5,
        16, // 72
        NOTE_F5,
        4,
        NOTE_F5,
        8,
        NOTE_F5,
        -4,
        NOTE_DS5,
        4,
        NOTE_D5,
        16,
        NOTE_C5,
        16,
        NOTE_AS4,
        4,
        NOTE_A4,
        8,
        NOTE_GS4,
        4,
        NOTE_G4,
        8,
        NOTE_A4,
        -4,
        NOTE_B4,
        4,
        REST,
        8,
        NOTE_A3,
        -32,
        NOTE_C4,
        -32,
        NOTE_E4,
        -32,
        NOTE_A4,
        -32,
        NOTE_C5,
        -32,
        NOTE_E5,
        -32,
        NOTE_D5,
        -32,
        NOTE_C5,
        -32,
        NOTE_B4,
        -32,

        NOTE_A4,
        -32,
        NOTE_C5,
        -32,
        NOTE_E5,
        -32,
        NOTE_A5,
        -32,
        NOTE_C6,
        -32,
        NOTE_E6,
        -32,
        NOTE_D6,
        -32,
        NOTE_C6,
        -32,
        NOTE_B5,
        -32, // 80
        NOTE_A4,
        -32,
        NOTE_C5,
        -32,
        NOTE_E5,
        -32,
        NOTE_A5,
        -32,
        NOTE_C6,
        -32,
        NOTE_E6,
        -32,
        NOTE_D6,
        -32,
        NOTE_C6,
        -32,
        NOTE_B5,
        -32,
        NOTE_AS5,
        -32,
        NOTE_A5,
        -32,
        NOTE_GS5,
        -32,
        NOTE_G5,
        -32,
        NOTE_FS5,
        -32,
        NOTE_F5,
        -32,
        NOTE_E5,
        -32,
        NOTE_DS5,
        -32,
        NOTE_D5,
        -32,

        NOTE_CS5,
        -32,
        NOTE_C5,
        -32,
        NOTE_B4,
        -32,
        NOTE_AS4,
        -32,
        NOTE_A4,
        -32,
        NOTE_GS4,
        -32,
        NOTE_G4,
        -32,
        NOTE_FS4,
        -32,
        NOTE_F4,
        -32, // 84
        NOTE_E4,
        16,
        NOTE_DS5,
        16,
        NOTE_E5,
        16,
        NOTE_B4,
        16,
        NOTE_D5,
        16,
        NOTE_C5,
        16,
        NOTE_A4,
        -8,
        NOTE_C4,
        16,
        NOTE_E4,
        16,
        NOTE_A4,
        16,
        NOTE_B4,
        -8,
        NOTE_E4,
        16,
        NOTE_GS4,
        16,
        NOTE_B4,
        16,

        NOTE_C5,
        8,
        REST,
        16,
        NOTE_E4,
        16,
        NOTE_E5,
        16,
        NOTE_DS5,
        16, // 88
        NOTE_E5,
        16,
        NOTE_DS5,
        16,
        NOTE_E5,
        16,
        NOTE_B4,
        16,
        NOTE_D5,
        16,
        NOTE_C5,
        16,
        NOTE_A4,
        -8,
        NOTE_C4,
        16,
        NOTE_E4,
        16,
        NOTE_A4,
        16,
        NOTE_B4,
        -8,
        NOTE_E4,
        16,
        NOTE_C5,
        16,
        NOTE_B4,
        16,
        NOTE_A4,
        -8,
        REST,
        -8,
        REST,
        -8,
        NOTE_G4,
        16,
        NOTE_F5,
        16,
        NOTE_E5,
        16,
        NOTE_D5,
        4,
        REST,
        8,
        REST,
        -8,
        NOTE_E4,
        16,
        NOTE_D5,
        16,
        NOTE_C5,
        16,

        NOTE_B4,
        -8,
        NOTE_E4,
        16,
        NOTE_E5,
        8, // 96
        NOTE_E5,
        8,
        NOTE_E6,
        -8,
        NOTE_DS5,
        16,
        NOTE_E5,
        16,
        REST,
        16,
        REST,
        16,
        NOTE_DS5,
        16,
        NOTE_E5,
        16,
        NOTE_DS5,
        16,
        NOTE_E5,
        16,
        NOTE_DS5,
        16,
        NOTE_E5,
        16,
        NOTE_B4,
        16,
        NOTE_D5,
        16,
        NOTE_C5,
        16,
        NOTE_A4,
        -8,
        NOTE_C4,
        16,
        NOTE_E4,
        16,
        NOTE_A4,
        16,
        NOTE_B4,
        -8,
        NOTE_E4,
        16,
        NOTE_GS4,
        16,
        NOTE_B4,
        16,

        NOTE_C5,
        8,
        REST,
        16,
        NOTE_E4,
        16,
        NOTE_E5,
        16,
        NOTE_DS5,
        16, // 102
        NOTE_E5,
        16,
        NOTE_DS5,
        16,
        NOTE_E5,
        16,
        NOTE_B4,
        16,
        NOTE_D5,
        16,
        NOTE_C5,
        16,
        NOTE_A4,
        -8,
        NOTE_C4,
        16,
        NOTE_E4,
        16,
        NOTE_A4,
        16,
        NOTE_B4,
        -8,
        NOTE_E4,
        16,
        NOTE_C5,
        16,
        NOTE_B4,
        16,
        NOTE_A4,
        -4,
    }};

std::vector<Melody *>
    melodies = {&asaBlanca, &bloodyTears, &wiegenlied, &cannonInD, &cantinaBand, &atDoomSGate, &furElise};